<svg width="1440" height="394" viewBox="0 0 1440 394" fill="none" xmlns="http://www.w3.org/2000/svg">
<path fill-rule="evenodd" clip-rule="evenodd" d="M899.099 0C952.136 194.791 1130.11 338 1341.5 338C1375.31 338 1408.27 334.336 1440 327.382V0H899.099Z" fill="#00210A"/>
<path fill-rule="evenodd" clip-rule="evenodd" d="M1013 0H637V24.6615C657.245 25.1316 678.042 26.6288 699.192 29.2256C826.553 44.8636 931.874 96.1022 976.484 157H1013V0Z" fill="#00210A"/>
<path fill-rule="evenodd" clip-rule="evenodd" d="M662.29 134C546.832 287.392 293.722 393.879 0 394V0H1440V29.5103V84V92.4897C1426.04 146.281 1377.16 186 1319 186C1277.21 186 1240.22 165.496 1217.52 134H1217.33C1155.21 58.8791 1054.13 10 940 10C825.866 10 724.791 58.8791 662.666 134H662.29Z" fill="#34693F"/>
</svg>
