<svg width="473" height="100" viewBox="0 0 473 100" fill="none" xmlns="http://www.w3.org/2000/svg">
<rect x="2.5" y="2.5" width="468" height="95" rx="12.5" stroke="#34693F" stroke-width="5"/>
<rect x="49.4668" y="25.5" width="4.24641" height="49" rx="1.5" fill="#34693F" stroke="#34693F"/>
<rect x="26.7324" y="51.1666" width="4" height="51.4641" rx="1.5" transform="rotate(-90 26.7324 51.1666)" fill="#34693F" stroke="#34693F"/>
<path d="M105.113 55.296V55.264C105.134 55.1147 105.166 54.976 105.209 54.848C105.251 54.6987 105.294 54.56 105.337 54.432L112.569 40.224L112.536 40.256C112.579 40.064 112.675 39.8613 112.825 39.648C112.974 39.4133 113.23 39.2213 113.593 39.072H121.849C121.977 39.072 122.105 39.1253 122.233 39.232C122.361 39.3173 122.478 39.424 122.585 39.552C122.713 39.68 122.819 39.808 122.905 39.936C122.99 40.064 123.054 40.16 123.097 40.224V40.192L130.617 56H122.489L120.953 52.768C120.633 53.2587 120.259 53.792 119.833 54.368C119.427 54.944 118.99 55.488 118.521 56H105.657C105.529 56 105.401 55.9253 105.273 55.776C105.166 55.6053 105.113 55.4453 105.113 55.296ZM117.817 45.152L114.873 51.456H120.409L117.817 45.152ZM150.91 41.28V54.912C150.675 55.4667 150.27 55.8293 149.694 56H133.374C132.734 55.7227 132.307 55.36 132.094 54.912V48.48H138.782V51.712C138.825 51.8187 138.857 51.8933 138.878 51.936C138.899 51.9573 138.942 51.9787 139.006 52H143.998C144.126 51.9147 144.201 51.8187 144.222 51.712V45.28H138.398C138.697 44.5973 138.985 43.9147 139.262 43.232C139.539 42.5493 139.923 41.8987 140.414 41.28H150.91ZM154.406 56L154.278 55.968C153.681 55.6907 153.286 55.3387 153.094 54.912V42.368C153.307 41.8347 153.713 41.472 154.31 41.28H170.694C171.163 41.4293 171.569 41.8027 171.91 42.4V54.912C171.675 55.4667 171.27 55.8293 170.694 56H154.406ZM160.038 45.28C159.91 45.3013 159.825 45.3867 159.782 45.536V51.712C159.825 51.8187 159.857 51.8933 159.878 51.936C159.899 51.9573 159.942 51.9787 160.006 52H164.998C165.126 51.9147 165.201 51.8187 165.222 51.712V45.568C165.158 45.3973 165.083 45.3013 164.998 45.28H160.038ZM180.782 51.712C180.825 51.8187 180.857 51.8933 180.878 51.936C180.899 51.9573 180.942 51.9787 181.006 52H185.998C186.126 51.9147 186.201 51.8187 186.222 51.712V41.28H192.91V54.912C192.675 55.4667 192.27 55.8293 191.694 56H175.374C174.734 55.7227 174.307 55.36 174.094 54.912V41.28H180.782V51.712ZM207.414 45.28V56H200.726V45.28H194.486C194.87 43.9787 195.521 42.6453 196.438 41.28H213.782C213.419 41.9627 213.035 42.6453 212.63 43.328C212.225 43.9893 211.745 44.64 211.19 45.28H207.414ZM215.282 56V41.28H231.569C231.826 41.28 232.05 41.4613 232.242 41.824C232.434 42.1867 232.583 42.6027 232.69 43.072C232.796 43.5413 232.871 44 232.914 44.448C232.978 44.8747 233.01 45.152 233.01 45.28H221.97V46.72H231.794C231.794 46.8267 231.751 47.0933 231.666 47.52C231.58 47.9253 231.463 48.352 231.314 48.8C231.186 49.248 231.036 49.6533 230.866 50.016C230.716 50.3787 230.567 50.56 230.418 50.56H221.97V52H233.01C233.01 52.0427 232.967 52.2773 232.882 52.704C232.818 53.1093 232.722 53.5573 232.594 54.048C232.466 54.5387 232.306 54.9867 232.114 55.392C231.943 55.7973 231.762 56 231.569 56H215.282ZM234.844 41.28H252.54C252.775 41.3653 253.02 41.504 253.276 41.696C253.532 41.888 253.703 42.0693 253.788 42.24V44.576C253.788 44.96 253.767 45.376 253.724 45.824C253.681 46.2507 253.532 46.6133 253.276 46.912C252.657 47.6587 252.167 48.2347 251.804 48.64C251.441 49.0453 251.175 49.3547 251.004 49.568C250.876 49.696 250.791 49.7813 250.748 49.824C250.727 49.8667 250.716 49.888 250.716 49.888V50.016L254.588 56H247.516L243.452 50.592C243.217 50.2293 243.1 49.9733 243.1 49.824C243.1 49.568 243.239 49.3333 243.516 49.12C244.049 48.6293 244.551 48.128 245.02 47.616C245.511 47.0827 245.948 46.5813 246.332 46.112C246.439 46.0053 246.535 45.8987 246.62 45.792C246.727 45.6853 246.833 45.5787 246.94 45.472C246.94 45.344 246.929 45.28 246.908 45.28H241.532V56H234.844V41.28ZM271.72 51.712C271.762 51.8187 271.794 51.8933 271.816 51.936C271.837 51.9573 271.88 51.9787 271.944 52H276.936C277.064 51.9147 277.138 51.8187 277.16 51.712V41.28H283.848V54.912C283.613 55.4667 283.208 55.8293 282.632 56H266.312C265.672 55.7227 265.245 55.36 265.032 54.912V41.28H271.72V51.712ZM286.032 56V41.28H296.4C296.698 41.3867 296.933 41.536 297.104 41.728C297.274 41.8987 297.445 42.1013 297.616 42.336L300.88 50.016V41.28H307.568V56H297.712C297.605 56 297.488 55.968 297.36 55.904C297.232 55.8187 297.104 55.7227 296.976 55.616C296.869 55.488 296.773 55.3707 296.688 55.264C296.602 55.136 296.549 55.04 296.528 54.976V55.008L292.752 47.072V56H286.032ZM318.813 56V41.28H335.101C335.357 41.28 335.581 41.4613 335.773 41.824C335.965 42.1867 336.114 42.6027 336.221 43.072C336.327 43.5413 336.402 44 336.445 44.448C336.509 44.8747 336.541 45.152 336.541 45.28H325.501V46.72H335.325C335.325 46.8267 335.282 47.0933 335.197 47.52C335.111 47.9253 334.994 48.352 334.845 48.8C334.717 49.248 334.567 49.6533 334.397 50.016C334.247 50.3787 334.098 50.56 333.949 50.56H325.501V52H336.541C336.541 52.0427 336.498 52.2773 336.413 52.704C336.349 53.1093 336.253 53.5573 336.125 54.048C335.997 54.5387 335.837 54.9867 335.645 55.392C335.474 55.7973 335.293 56 335.101 56H318.813ZM338.375 56V41.28H348.743C349.042 41.3867 349.277 41.536 349.447 41.728C349.618 41.8987 349.789 42.1013 349.959 42.336L353.223 50.016V41.28H359.911V56H350.055C349.949 56 349.831 55.968 349.703 55.904C349.575 55.8187 349.447 55.7227 349.319 55.616C349.213 55.488 349.117 55.3707 349.031 55.264C348.946 55.136 348.893 55.04 348.871 54.976V55.008L345.095 47.072V56H338.375ZM362.125 41.28H378.413C378.669 41.28 378.893 41.4613 379.085 41.824C379.277 42.1867 379.427 42.6027 379.533 43.072C379.64 43.5413 379.715 44 379.757 44.448C379.821 44.8747 379.853 45.152 379.853 45.28H369.005V46.72H376.877C376.877 46.9547 376.835 47.3067 376.749 47.776C376.664 48.224 376.547 48.6827 376.397 49.152C376.248 49.6213 376.088 50.0267 375.917 50.368C375.747 50.7093 375.587 50.88 375.437 50.88H368.813V56H362.125V41.28ZM377.456 55.36V55.328C377.478 55.2 377.51 55.072 377.552 54.944C377.595 54.816 377.638 54.688 377.68 54.56L383.92 42.304L383.888 42.336C383.931 42.144 384.027 41.952 384.176 41.76C384.347 41.5467 384.582 41.3867 384.88 41.28H392.016C392.23 41.28 392.443 41.4187 392.656 41.696C392.87 41.952 393.019 42.144 393.104 42.272L399.632 56H392.528L391.248 53.248C390.95 53.6747 390.619 54.1333 390.256 54.624C389.915 55.1147 389.542 55.5733 389.136 56H377.968C377.819 56 377.691 55.9253 377.584 55.776C377.499 55.6053 377.456 55.4667 377.456 55.36ZM388.528 46.656L386.032 52H390.704L388.528 46.656ZM401.094 56V41.28H411.462C411.761 41.3867 411.995 41.536 412.166 41.728C412.337 41.8987 412.507 42.1013 412.678 42.336L415.942 50.016V41.28H422.63V56H412.774C412.667 56 412.55 55.968 412.422 55.904C412.294 55.8187 412.166 55.7227 412.038 55.616C411.931 55.488 411.835 55.3707 411.75 55.264C411.665 55.136 411.611 55.04 411.59 54.976V55.008L407.814 47.072V56H401.094ZM437.164 45.28V56H430.476V45.28H424.236C424.62 43.9787 425.271 42.6453 426.188 41.28H443.532C443.169 41.9627 442.785 42.6453 442.38 43.328C441.975 43.9893 441.495 44.64 440.94 45.28H437.164Z" fill="#34693F"/>
</svg>
