<svg width="198" height="34" viewBox="0 0 198 34" fill="none" xmlns="http://www.w3.org/2000/svg">
<path fill-rule="evenodd" clip-rule="evenodd" d="M23 24.3792L10.9103 16.8665L23 9.35393V0L1.40396 14.0153V14.0199C0.562193 14.6043 -0.000125885 15.662 -0.000125885 16.8699C-0.000125885 18.1632 0.6446 19.2844 1.58677 19.8367L23 33.7333V24.3792Z" fill="black"/>
<path d="M40.8831 6.57334H66.3631C66.7365 6.68 67.0965 6.86667 67.4431 7.13334C67.7898 7.4 67.9898 7.66667 68.0431 7.93334V11.2933C68.0431 11.8267 68.0165 12.4133 67.9631 13.0533C67.9365 13.6933 67.7365 14.2133 67.3631 14.6133C66.5098 15.6267 65.8298 16.4267 65.3231 17.0133C64.8431 17.6 64.4698 18.04 64.2031 18.3333C63.8298 18.7867 63.6431 18.9867 63.6431 18.9333V19.1333L69.2031 27.7333H59.1231L53.2831 19.9333C53.0698 19.6667 52.9365 19.4667 52.8831 19.3333C52.8298 19.1733 52.8031 19.0133 52.8031 18.8533C52.8031 18.5333 52.9765 18.2133 53.3231 17.8933C54.2565 17.0667 55.0565 16.28 55.7231 15.5333C56.4165 14.76 57.0831 13.9867 57.7231 13.2133C57.8031 13.1067 57.8965 13.0133 58.0031 12.9333C58.1098 12.8267 58.2165 12.7067 58.3231 12.5733C58.3231 12.36 58.2831 12.2533 58.2031 12.2533H50.4431V27.7333H40.8831V6.57334ZM70.8441 27.7333V9.33334H91.2041C91.5241 9.33334 91.8041 9.56 92.0441 10.0133C92.2841 10.4667 92.4707 10.9867 92.6041 11.5733C92.7374 12.16 92.8307 12.7333 92.8841 13.2933C92.9641 13.8267 93.0041 14.1733 93.0041 14.3333H79.2041V16.1333H91.4841C91.4841 16.2667 91.4307 16.6 91.3241 17.1333C91.2174 17.64 91.0707 18.1733 90.8841 18.7333C90.7241 19.2933 90.5374 19.8 90.3241 20.2533C90.1374 20.7067 89.9507 20.9333 89.7641 20.9333H79.2041V22.7333H93.0041C93.0041 22.7867 92.9507 23.08 92.8441 23.6133C92.7641 24.12 92.6441 24.68 92.4841 25.2933C92.3241 25.9067 92.1241 26.4667 91.8841 26.9733C91.6707 27.48 91.4441 27.7333 91.2041 27.7333H70.8441ZM110.697 14.3333V27.7333H102.337V14.3333H94.5372C95.0172 12.7067 95.8305 11.04 96.9772 9.33334H118.657C118.204 10.1867 117.724 11.04 117.217 11.8933C116.711 12.72 116.111 13.5333 115.417 14.3333H110.697ZM122.172 27.7333L122.012 27.6933C121.265 27.3467 120.772 26.9067 120.532 26.3733V10.6933C120.798 10.0267 121.305 9.57334 122.052 9.33334H142.532C143.118 9.52 143.625 9.98667 144.052 10.7333V26.3733C143.758 27.0667 143.252 27.52 142.532 27.7333H122.172ZM129.212 14.3333C129.052 14.36 128.945 14.4667 128.892 14.6533V22.3733C128.945 22.5067 128.985 22.6 129.012 22.6533C129.038 22.68 129.092 22.7067 129.172 22.7333H135.412C135.572 22.6267 135.665 22.5067 135.692 22.3733V14.6933C135.612 14.48 135.518 14.36 135.412 14.3333H129.212ZM155.142 22.3733C155.195 22.5067 155.235 22.6 155.262 22.6533C155.288 22.68 155.342 22.7067 155.422 22.7333H161.662C161.822 22.6267 161.915 22.5067 161.942 22.3733V9.33334H170.302V26.3733C170.008 27.0667 169.502 27.52 168.782 27.7333H148.382C147.582 27.3867 147.048 26.9333 146.782 26.3733V9.33334H155.142V22.3733ZM173.032 9.33334H195.152C195.445 9.44 195.752 9.61334 196.072 9.85334C196.392 10.0933 196.605 10.32 196.712 10.5333V13.4533C196.712 13.9333 196.685 14.4533 196.632 15.0133C196.578 15.5467 196.392 16 196.072 16.3733C195.298 17.3067 194.685 18.0267 194.232 18.5333C193.778 19.04 193.445 19.4267 193.232 19.6933C193.072 19.8533 192.965 19.96 192.912 20.0133C192.885 20.0667 192.872 20.0933 192.872 20.0933V20.2533L197.712 27.7333H188.872L183.792 20.9733C183.498 20.52 183.352 20.2 183.352 20.0133C183.352 19.6933 183.525 19.4 183.872 19.1333C184.538 18.52 185.165 17.8933 185.752 17.2533C186.365 16.5867 186.912 15.96 187.392 15.3733C187.525 15.24 187.645 15.1067 187.752 14.9733C187.885 14.84 188.018 14.7067 188.152 14.5733C188.152 14.4133 188.138 14.3333 188.112 14.3333H181.392V27.7333H173.032V9.33334Z" fill="black"/>
</svg>
