<svg width="330" height="48" viewBox="0 0 330 48" fill="none" xmlns="http://www.w3.org/2000/svg">
<path fill-rule="evenodd" clip-rule="evenodd" d="M36.1074 34.6893L17.5835 24.0001L36.1074 13.3112V0L3.01317 19.944V19.9504C1.72426 20.7821 0.863358 22.2867 0.863358 24.0046C0.863358 25.8467 1.85326 27.4435 3.29932 28.2285L36.1074 48V34.6893Z" fill="white"/>
<path d="M73.6258 6.144H114.394C114.991 6.31466 115.567 6.61333 116.122 7.04C116.676 7.46667 116.996 7.89333 117.082 8.32V13.696C117.082 14.5493 117.039 15.488 116.954 16.512C116.911 17.536 116.591 18.368 115.994 19.008C114.628 20.6293 113.54 21.9093 112.73 22.848C111.962 23.7867 111.364 24.4907 110.938 24.96C110.34 25.6853 110.042 26.0053 110.042 25.92V26.24L118.938 40H102.81L93.4658 27.52C93.1245 27.0933 92.9112 26.7733 92.8258 26.56C92.7405 26.304 92.6978 26.048 92.6978 25.792C92.6978 25.28 92.9752 24.768 93.5298 24.256C95.0232 22.9333 96.3032 21.6747 97.3698 20.48C98.4792 19.2427 99.5458 18.0053 100.57 16.768C100.698 16.5973 100.847 16.448 101.018 16.32C101.188 16.1493 101.359 15.9573 101.53 15.744C101.53 15.4027 101.466 15.232 101.338 15.232H88.9218V40H73.6258V6.144ZM121.563 40V10.56H154.139C154.651 10.56 155.099 10.9227 155.483 11.648C155.867 12.3733 156.166 13.2053 156.379 14.144C156.593 15.0827 156.742 16 156.827 16.896C156.955 17.7493 157.019 18.304 157.019 18.56H134.939V21.44H154.587C154.587 21.6533 154.502 22.1867 154.331 23.04C154.161 23.8507 153.926 24.704 153.627 25.6C153.371 26.496 153.073 27.3067 152.731 28.032C152.433 28.7573 152.134 29.12 151.835 29.12H134.939V32H157.019C157.019 32.0853 156.934 32.5547 156.763 33.408C156.635 34.2187 156.443 35.1147 156.187 36.096C155.931 37.0773 155.611 37.9733 155.227 38.784C154.886 39.5947 154.523 40 154.139 40H121.563ZM185.328 18.56V40H171.952V18.56H159.472C160.24 15.9573 161.542 13.2907 163.376 10.56H198.064C197.339 11.9253 196.571 13.2907 195.76 14.656C194.95 15.9787 193.99 17.28 192.88 18.56H185.328ZM203.687 40L203.431 39.936C202.237 39.3813 201.447 38.6773 201.063 37.824V12.736C201.49 11.6693 202.301 10.944 203.495 10.56H236.263C237.202 10.8587 238.013 11.6053 238.695 12.8V37.824C238.226 38.9333 237.415 39.6587 236.263 40H203.687ZM214.951 18.56C214.695 18.6027 214.525 18.7733 214.439 19.072V31.424C214.525 31.6373 214.589 31.7867 214.631 31.872C214.674 31.9147 214.759 31.9573 214.887 32H224.871C225.127 31.8293 225.277 31.6373 225.319 31.424V19.136C225.191 18.7947 225.042 18.6027 224.871 18.56H214.951ZM256.439 31.424C256.525 31.6373 256.589 31.7867 256.631 31.872C256.674 31.9147 256.759 31.9573 256.887 32H266.871C267.127 31.8293 267.277 31.6373 267.319 31.424V10.56H280.695V37.824C280.226 38.9333 279.415 39.6587 278.263 40H245.623C244.343 39.4453 243.49 38.72 243.063 37.824V10.56H256.439V31.424ZM285.063 10.56H320.455C320.925 10.7307 321.415 11.008 321.927 11.392C322.439 11.776 322.781 12.1387 322.951 12.48V17.152C322.951 17.92 322.909 18.752 322.823 19.648C322.738 20.5013 322.439 21.2267 321.927 21.824C320.69 23.3173 319.709 24.4693 318.983 25.28C318.258 26.0907 317.725 26.7093 317.383 27.136C317.127 27.392 316.957 27.5627 316.871 27.648C316.829 27.7333 316.807 27.776 316.807 27.776V28.032L324.551 40H310.407L302.279 29.184C301.81 28.4587 301.575 27.9467 301.575 27.648C301.575 27.136 301.853 26.6667 302.407 26.24C303.474 25.2587 304.477 24.256 305.415 23.232C306.397 22.1653 307.271 21.1627 308.039 20.224C308.253 20.0107 308.445 19.7973 308.615 19.584C308.829 19.3707 309.042 19.1573 309.255 18.944C309.255 18.688 309.234 18.56 309.191 18.56H298.439V40H285.063V10.56Z" fill="white"/>
</svg>
