<svg width="1521" height="1326" viewBox="0 0 1521 1326" fill="none" xmlns="http://www.w3.org/2000/svg">
<path fill-rule="evenodd" clip-rule="evenodd" d="M0 941.386V19.3277C183.873 69.1596 426.008 99.4268 691.319 99.4268C989.38 99.4268 1258.19 61.2262 1448 0V1014.15V1148V1172.85C1328.94 1262.19 1014.58 1326 645.5 1326C387.646 1326 156.5 1294.85 0 1245.61V1148V941.386Z" fill="#00210A"/>
<path fill-rule="evenodd" clip-rule="evenodd" d="M1521 53C1080.78 53.2474 724 351.107 724 718.5C724 960.349 878.606 1172.07 1109.85 1288.59C1112.13 1288.2 1114.42 1287.81 1116.73 1287.43C1271.58 1260.13 1391.83 1220.05 1456.25 1172.85L1456.25 1148V55.792C1477.6 54.2007 1499.2 53.2795 1521 53.0544V53Z" fill="#34693F"/>
</svg>
