<svg width="1196" height="406" viewBox="0 0 1196 406" fill="none" xmlns="http://www.w3.org/2000/svg">
<path fill-rule="evenodd" clip-rule="evenodd" d="M114.772 0C93.9191 27.1889 81.8036 59.6441 81.8036 94.5C81.8036 190.321 173.365 268 286.312 268C399.26 268 490.821 190.321 490.821 94.5C490.821 59.6441 478.706 27.1889 457.853 0H114.772Z" fill="#34693F"/>
<path fill-rule="evenodd" clip-rule="evenodd" d="M1195 358.985V110H1195.04V0H225.18C238.094 13.892 245.46 29.9254 245.46 47C245.46 91.9312 194.454 129.653 125.571 140.116C112.201 141.358 99.3811 143.611 87.3308 146.74C87.4698 146.785 87.6088 146.83 87.7476 146.875C36.585 160.749 0 197.654 0 241C0 280.452 30.3061 314.568 74.3259 330.839C74.06 330.9 73.7937 330.961 73.5271 331.021C167.385 374.897 402.23 406 677.09 406C888.882 406 1076.92 387.533 1195 358.985Z" fill="#00210A"/>
</svg>
