<svg width="1081" height="406" viewBox="0 0 1081 406" fill="none" xmlns="http://www.w3.org/2000/svg">
<path fill-rule="evenodd" clip-rule="evenodd" d="M103.824 0C84.9597 27.1889 74 59.6441 74 94.5C74 190.321 156.827 268 259 268C361.173 268 444 190.321 444 94.5C444 59.6441 433.04 27.1889 414.176 0H103.824Z" fill="#34693F"/>
<path fill-rule="evenodd" clip-rule="evenodd" d="M1081 358.985V110H1081.04V0H203.699C215.381 13.892 222.044 29.9254 222.044 47C222.044 91.9312 175.904 129.653 113.592 140.116C101.498 141.358 89.9007 143.61 79 146.74C79.1258 146.785 79.2515 146.83 79.377 146.875C33.095 160.749 0 197.654 0 241C0 280.452 27.4151 314.568 67.2356 330.839C66.9951 330.9 66.7543 330.961 66.5131 331.021C151.418 374.897 363.859 406 612.5 406C804.088 406 974.184 387.533 1081 358.985Z" fill="#00210A"/>
</svg>
