<svg width="1440" height="1578" viewBox="0 0 1440 1578" fill="none" xmlns="http://www.w3.org/2000/svg">
<path fill-rule="evenodd" clip-rule="evenodd" d="M1440 94.3619C1271.73 36.2574 1033.34 0 768.999 0C448.062 0 165.382 53.4441 0 134.544V467.764C165.382 548.863 448.062 602.307 768.999 602.307C1033.34 602.307 1271.73 566.05 1440 507.945V94.3619Z" fill="#34693F"/>
<path fill-rule="evenodd" clip-rule="evenodd" d="M1440 140.693C1271.73 82.5885 1033.34 46.3311 768.999 46.3311C448.061 46.3311 165.381 99.7755 -0.000976562 180.875V514.094C165.381 595.194 448.061 648.638 768.999 648.638C1033.34 648.638 1271.73 612.381 1440 554.276V140.693Z" fill="#00210A"/>
<path fill-rule="evenodd" clip-rule="evenodd" d="M-0.000976562 1081H1440V238.785H-0.000976562V1081Z" fill="#00210A"/>
<path fill-rule="evenodd" clip-rule="evenodd" d="M-0.000976562 1518.88C200.258 1556 449.214 1578 718.999 1578C989.683 1578 1239.4 1555.86 1440 1518.51V1046.49C1239.4 1009.14 989.683 987 718.999 987C449.214 987 200.258 1009 -0.000976562 1046.12V1518.88Z" fill="#00210A"/>
</svg>
